<?xml version="1.0" encoding="utf-8"?>
<!-- Generator: Adobe Illustrator 23.0.1, SVG Export Plug-In . SVG Version: 6.00 Build 0)  -->
<svg version="1.1" id="Layer_1" xmlns="http://www.w3.org/2000/svg" xmlns:xlink="http://www.w3.org/1999/xlink" x="0px" y="0px"
	 viewBox="0 0 442 332" style="enable-background:new 0 0 442 332;" xml:space="preserve">
<style type="text/css">
	.st0{fill:#FFFFFF;}
</style>
<g>
	<g id="XMLID_53_">
		<path id="XMLID_51_" class="st0" d="M153.2,41.2c3.4-0.6,5.4-2.7,10.1-2c-1.7,5.6-10.6,3.7-14.2,5.9c1-3.7,0.6-4.6-2.7-5.2
			C147.9,37.5,152.6,38.5,153.2,41.2"/>
		<path id="XMLID_50_" class="st0" d="M136.9,45.1c2.3-2.8,4.7-1.5,6.1-4.6c2.5,0.5-0.1,2.1,0.7,4.6C138.7,46.1,141,44.6,136.9,45.1
			"/>
		<path id="XMLID_49_" class="st0" d="M147.1,42.5v2.6h-2.7C145.2,44.1,145,42.2,147.1,42.5"/>
		<path id="XMLID_48_" class="st0" d="M141.7,47.7c0.2,2.4,1.2,6.7-4.1,7.8c0.9-2.8-3.2-0.8-2.7-3.3C139.2,53,136.7,48.2,141.7,47.7
			"/>
		<path id="XMLID_96_" class="st0" d="M236.3,58.1c1.6,17.4,0.2,37.6,0.7,56.2c13.8,6.1,35,13.3,48,24.2
			c5.7,4.8,12.5,12.9,13.5,20.9c1.8,13.8-6.5,23.4-13.5,32c1.3,5.6,8.2,8.1,6.1,14.4c-1.9,5.6-12,4.5-16.9,1.3
			c-9.3,5.6-32.4,20.8-38.5,2.6c-2.5-1.1-3.1,3-4.1,1.3c-0.2-2.9-1.1-5.1-0.7-8.5c-4.4-1.2-10.1-1.1-12.8-3.9
			c-9.9,5.9-38.1,11.3-34.5-7.8c-6.1-3-12.5,0.2-13.5,5.9c3.9,3.5,10.2,2.3,11.5,7.2c4.7,18.3-55.3,34-48.7,0
			c0.9-4.4,4-5.1,6.1-10.5c-2.4-8.1-6.8-12.3-7.4-20.9c-2.4-31.9,33.7-44,54.8-55.5c-0.4-14.6,1.7-31.7-5.4-39.8
			c4.3-4.1,6.4-10.3,6.8-18.3c5.3,1.4,6.2,7.1,10.1,9.8c-3.8,10-2.5,25-2.7,38.5c4.9-1.8,8.5-10.5,13.5-14.4
			c-6.8-9.3-0.2-22.1,1.4-32.7c3.3,8.4,9.2,23.1,2.7,31.4c5,5.2,8.7,11.7,14.2,16.3c-0.5-8.6,0.6-18.1,0-26.8
			c-0.3-3.8-2.5-8.2-2-11.1C225.8,64.2,232.2,61.2,236.3,58.1 M195.1,121.5c-0.4,2,0.6,4.6,0.7,6.5c0.7,11.4-0.5,25,0,38.5
			c4.9-2.1,12.9-9,22.3-7.2c4.1,0.8,6.8,6.1,9.5,4.6v-41.1c-6.5-6.3-12.4-13.2-18.3-20.2C208.4,110.5,196.8,113.1,195.1,121.5
			 M237,149.6c3.8-0.3,6.3-1.7,9.5-2.6c-3.7-6.7,12.7-11.9,14.2-5.2c1.8,7.9-15.5,11.1-23.7,12.4c0.6,5.7,0.7,9.2,0.7,16.3
			c8-2.9,14.4-7.4,23.7-9.1c-2.2-12,20.6-16.2,20.3-4.6c-0.1,3.3-3.4,6.3-7.4,7.8c-11.5,4.5-28.1,4.2-36.5,11.1
			c-0.4,5.9,0.6,10.3,0.7,15.7c8.5-3,15.9-18.4,28.4-20.2c13.6-2,19.1,8,12.8,16.3c-6.6,8.9-23,12.8-35.8,15.7
			c0.5,6.3,6.7,7.8,13.5,6.5c8.7-1.6,17-11,22.3-16.3c6.4-6.4,13.6-14.1,13.5-24.8c-0.2-26.2-36.8-38.5-56.8-45.1
			C236.7,132,235.4,142.1,237,149.6 M187,126.7c-22.6,8.1-64.8,32.2-45.3,60.7c3.7-3.2,8.1-5.7,11.5-9.1c0.2-8-4.2-11.6-6.1-17.6
			c1.8-0.3,2-1.9,4.1-2c3.3,7.6,9.6,21.5,2.7,29.4c0.3-2.2-0.3-3.7-0.7-5.2c-4.4,1.2-6.6,4.5-8.8,7.8c1.9,1.9,2.5,4.9,3.4,7.8
			c-2.5,0.1-4-3-6.1-1.3c-8.9,18.3,20.8,22.9,27.7,11.1c-4.8-0.8-9.3-1.9-10.8-5.9c1.3-4.6,4.5-7.4,6.1-11.8
			c-5.9-8.3-5.6-27.3,7.4-25.5c8.2,1.2,7.3,11.4,14.2,15c3.7-6.5,2-16.2,2-25.5v-28.1H187V126.7z M196.4,177.7
			c6.2,0.2,17.4-0.1,18.9-6.5C209.2,166.6,198.1,171.6,196.4,177.7 M171.4,180.3c2.8-2.5,0.5-7.8-4.1-7.2
			C165.9,176.2,167.9,179.9,171.4,180.3 M191,190.1c4.9,8.7,23.4,1.8,30.4,0c0.2-1.9,0.4-4,2-4.6c2.8,1,2.6,4.9,6.1,5.2
			c1.2-4.5,1.2-13.2-1.4-16.3C219.7,183.4,206.5,187.9,191,190.1 M251.8,188.8c6.5,1.4,15.8,0.1,17.6-5.2
			C264.8,177.9,253.3,183.2,251.8,188.8"/>
		<path id="XMLID_39_" class="st0" d="M137.6,58.8c1.1-0.2,1.2,0.6,2,0.7c0.3,3-2.2,3.4-4.1,2.6C136.2,60.9,137.2,60.1,137.6,58.8"
			/>
		<path id="XMLID_38_" class="st0" d="M168.7,61.4c1.6-0.2,2.6,0.1,3.4,0.7c-0.2,1.3-2.5,0.6-2.7,2
			C168.5,63.8,168.8,62.4,168.7,61.4"/>
		<path id="XMLID_37_" class="st0" d="M310.7,71.8c1.6,0.9,3.8,1.1,3.4,3.9C311.2,76.1,309.6,73.2,310.7,71.8"/>
		<path id="XMLID_36_" class="st0" d="M258.6,88.8c-1.9,2.8,0.1,7.6-6.1,7.2c-0.6-1.3,1.4-4.7,0-5.9
			C254.3,89.6,256.9,85.4,258.6,88.8"/>
		<path id="XMLID_35_" class="st0" d="M124.8,97.3c2.1,1.2,2.5,5.4,2,7.2C126.4,102,123,99.8,124.8,97.3"/>
		<path id="XMLID_34_" class="st0" d="M208.6,109.7c3.3,2.1,1.6,8.9,2,13.7c0,2.4,3.6,1.4,4.7,2.6c0.3,4.4-4.7,3.7-6.1,6.5
			c0.1,1.8-0.6,4.5,1.4,4.6c2.8-2.4,6.5-8.3,11.5-4.6c0.5,5.5-5.6,4.6-8.8,6.5c-3.5,4.4-3.7,12.1-8.8,15c-6.4-2.8,0.7-9.1,1.4-13.1
			c0-2.2-3.8-0.7-4.7-2c-1.1-3.9,0.8-8.2,6.1-7.8C208.6,125,207,115.9,208.6,109.7"/>
		<path id="XMLID_33_" class="st0" d="M282.3,115.6c1.5-0.1,0.3,2.3,0.7,3.3C280.3,118.6,281.1,116.6,282.3,115.6"/>
		<path id="XMLID_32_" class="st0" d="M152.5,116.3c-3.4,2-8,6.1-11.5,5.9C144.3,119.7,147.5,117.1,152.5,116.3"/>
		<path id="XMLID_31_" class="st0" d="M282.3,119.5c1.6,0.5,2.4,5.1-0.7,4.6C281.6,121.3,280.6,121.1,282.3,119.5"/>
		<path id="XMLID_30_" class="st0" d="M287.7,127.4c0.1-1.4,2.9-0.3,4.1-0.7v2.6C289.7,129.4,289.1,127.9,287.7,127.4"/>
		<path id="XMLID_29_" class="st0" d="M174.1,154.8c-0.5,3.5-2.9,5.1-4.7,7.2c-4.3-0.9-6.5-3.7-9.5-5.9
			C161.8,147,169.8,149.2,174.1,154.8"/>
		<path id="XMLID_28_" class="st0" d="M313.4,201.2c1.7-0.1,3.3-0.1,4.1,0.7c0.1,2.1-1.8,2.2-1.4,4.6c-1.7-0.1-2.1-1.2-2.7,0.7
			C311.8,204.7,313.6,203.9,313.4,201.2"/>
		<path id="XMLID_27_" class="st0" d="M206.6,212.9c4.5-1.5,10.8-8.1,14.2-1.3c-2.8,7.6-18.6,13.5-21.6,2.6
			c-7.5,1.1-12.4,8-18.3,8.5C186,216.9,199.2,202.4,206.6,212.9"/>
		<path id="XMLID_26_" class="st0" d="M278.9,216.8c-0.2,1.1,0.6,1.1,0.7,2c-2.1,4.3-10.5,2.5-14.2,5.2
			C266.5,221,272.6,217.1,278.9,216.8"/>
		<path id="XMLID_25_" class="st0" d="M313.4,218.8c1.3,1.3-0.5,5.1-0.7,7.2C311,224.3,313.3,221,313.4,218.8"/>
		<path id="XMLID_24_" class="st0" d="M176.1,252.1c-0.8,0.9,2.3,3.4,3.4,4.6c0,1.3-1.8,0.8-1.4,2.6h-5.4c-1.7,0.2,0.9,1.1,0,2.6
			c-1.2,1.2-2-0.3-3.4-0.7c0.1,1.7,1,2.5,2.7,2.6c0.3,1.6-3.1-0.4-2,2c-4.2-0.7-9.5-3.9-11.5-4.6c-3.2-6.8-0.9-19-2.7-27.4
			c5.6-1.5,12.2-2.2,16.2-5.2c6.3,7.1,17.4,3.5,23-2c3.2,0.2,3.5,3.2,7.4,2.6c-1.1,3.1-3.1,5.3-4.1,8.5c-4.7-0.2-6.8,2.1-10.1,3.3
			c2.8,7.5-5.5,8-5.4,13.1C180.6,255,177.6,253.8,176.1,252.1"/>
		<path id="XMLID_23_" class="st0" d="M171.4,30c-4.6,1.5-6.6,5.9-7.4,7.8c0,1.5-1.8-0.2-1.4-1.3c-3.6,0.4-5.5,2.5-9.5,2.6
			c-0.5-2.8,3.4-1.5,2.7-4.6c2.5-1.3,1.8,0.9,4.7,0.7c1.2-1.8-3-1.3-0.7-2c0.3-1.1-2.5,0.1-2.7,0.7c1.3-3.1,9.3-5.4,14.9-6.5
			C171.5,30,169.4,26.6,171.4,30"/>
		<path id="XMLID_22_" class="st0" d="M234.3,30.7c0.8,0.3,3.3,0.1,2.7,3.3c-4-1,0.5,3-2.7,3.3c0.4,1.5,1.1-0.8,2,0.7
			c-0.9,1.7-2.2,2-4.1,1.3c1.7,1.6,2.5,2.2,2.7,3.9c-0.3,0.9-0.6-0.1-1.4,0c0.3,1.6,1.3,2.7,2,3.9c-2.4,2.3-4.1-1.7-5.4-2.6
			c-1.6,0.4,1.4,2.7-1.4,2.6c0.4,1.6,4.2-0.1,4.7,1.3c-5.7,0.5-7.8,7.6-13.5,5.9c0.4,0.5,0.7,1.1,0.7,2c-2.4-7.5-18.4-9.3-19.6,0.7
			c-2.8-3.1-5.8-6.2-9.5-8.5c2.3-0.5,2.9,0.7,4.1,1.3c2.5-1.8-1.2-3.1-2-3.9c-2.1-0.5-1.3,1.8-3.4,1.3c0-2,0.6-3.3,2-3.9
			c0.1-7.5-10-11.9-15.5-6.5c-2-0.2-2.7-1.8-3.4-3.3c2.4,1.1,3.8-1.7,6.8-2c-1-1.3-5.8,2.1-6.8-0.7c1.7-4,9.9-1.7,10.1-7.2
			c15.3-4,36.4-4.9,53.4-2c0.3,1.6-1.2,1.4-0.7,3.3c-1.3,1.1-0.9-0.1-2.7,0c2.4,2.5,2.3,2.4,4.7,3.9C237.6,30,234.4,28.9,234.3,30.7
			"/>
		<path id="XMLID_73_" class="st0" d="M150.5,54.9c0.2-1.3-0.1-2-1.4-2c0.2-8.1,9-7.8,15.5-9.8c0.1,1.6,1.3,2-0.7,2.6
			c0.9,1.6,2.3,1.2,4.1,0.7c0.8,2.1,0.3,1.7-0.7,3.3c3.3-1.9,5.9,2,6.8,2c0.4,1.1,1.3,4.2-1.4,4.6c1,0.4,2.8,3.3,3.4,2
			c1.5,0.7,0.3,4.1,0.7,5.9c-1.7,0.1-2.1-1-2.7-2c-2.1,0.9-1.3,4.6,1.4,4.6c-0.5,1.9-1.7,3.2-4.7,2.6c-1.9,0.8,2.1,1.4,1.4,3.3
			c-1.3,0.9-3.9,0.6-5.4,1.3c-0.4-2.2-2-3.3-3.4-4.6c-1.5,1-2,2.8-4.7,2.6c-0.1-3.8,3.3-4.2,6.8-4.6c-1.8-4.3,4-6,1.4-11.1
			c-0.6,0.3-1.2,0.6-1.4,1.3c-0.1-2.2-1.7-3.2-2.7-4.6c-1.1,1.9-1.7,0.7-4.1,0.7c-0.4,3.3,2.4,0,2,2.6
			C156.5,54.4,153.9,55.5,150.5,54.9 M154.5,52.3c-0.1-2,1.5-5.3,1.4-6.5C154.1,46.3,152.7,50.5,154.5,52.3 M164,47.7
			c-0.9-0.9-3.2-0.9-4.1,0c-0.2-0.5,0-1.3-0.7-1.3c0.4,0.9-0.8,3.4,0.7,3.3C159.9,47,164.1,48.9,164,47.7 M169.4,64
			c0.2-1.3,2.5-0.6,2.7-2c-0.8-0.5-1.8-0.9-3.4-0.7C168.8,62.4,168.5,63.8,169.4,64"/>
		<path id="XMLID_17_" class="st0" d="M128.8,61.4c-2.4,2.2-6,3.4-8.8,5.2c-1.2-0.6-2-1.6-3.4-2c0.9-2.4,4.2-2.4,6.1-3.9
			c-0.6-1.4-2.7,1.2-4.7,0.7c1.8-3.3,6.1-4.1,7.4-7.8c2,1.8,5.3-1.1,2.7,2.6c1.3,0,0.9-1.8,2.7-1.3c-0.9-0.9-0.9-2.4,0-3.3
			c2.4,1.2-1.4,7.7,4.1,7.2C134.6,60.7,130.4,65,128.8,61.4"/>
		<path id="XMLID_65_" class="st0" d="M149.1,66.6c1,2.1,2.6,3.6,4.7,4.6c0.1,1.7-3.8,2.1-2.7-0.7c-1.9,0.4-1.4,5-4.1,2.6
			c0.4-1.8,2.1-2.3,2-4.6c-0.8-0.5-2.8-0.6-4.7,0c0.2,0.9,1.7,0.5,2.7,0.7c-4.1,5.7-11.1,8.5-13.5,15.7c1.5,0.7,2.7,1.8,2.7,3.9
			c4.9-1.3,6.7,5.4,12.2,3.9c-0.4,1.8-1,3.4-1.4,5.2c0.7-1.2,3.5-0.1,0.7,0c-0.1,1.2,0.8,1.4,0.7,2.6c4.2,0.6,3.3-3.7,3.4-7.2
			c3.4-1.1,7.3-7.6,2.7-10.4c3.3-2.5,2-5.4,4.1-9.1c2.2,0.9,3,0.6,4.7-0.7c2.4,0.5,2.3,3.4,5.4,3.3c-1.4,1.7-0.6,2.5-1.4,3.9
			c1.8,1,3.1,2.5,5.4,1.3c2.8,5,3.4,12,3.4,19.6c-3.6-1.6-10.7,1.4-12.8,5.2c1.8,0.6,3.8-4.1,8.1-3.3c0.2,2.1-0.8,3.1-2.7,3.3
			c2.3,0.8,0.4,5.7,4.1,5.2c-0.6,2-3.7,1.6-4.7,3.3c-1.4-0.4,0.9-2.5,2.7-2c-0.4-0.6-1.9-1-0.7-1.3c-12.3,7-33.2,22.7-43.9,35.3
			c-13.3-6.5-18.4,23.1-4.1,18.9c-1.2,1.2-0.5,4.3-0.7,6.5c-6.2-3.3-17.3-2-20.3-8.5c1.7-8.4-7.6-11.1-8.1-19.6h-2.7
			c1.8,4.6,2.9,9.8,5.4,13.7c-3.3,1.4-2.7-6.5-6.8-6.5c2.4-3-0.8-10.7-4.7-11.8c-0.6-10.7,3.2-20.3,4.1-27.4c1.1-0.2,1.2,0.6,2,0.7
			c0.5-2-1.9-1.3-1.4-3.3c6.3-13.3,9.5-29.5,23-35.9c-0.5-1.2-2-0.5-0.7-2c-1.2-0.1-1.4,0.8-2.7,0.7c1.4-2.1,3.2-3.9,4.7-5.9
			c2.7,0.4,2,0.4,4.7,0c-0.2,1.3-1.8,1.3-2,2.6c2.3,0,3.6-0.9,4.7-2c1.9-0.3,0.6,2.4,2,2.6c3.2-4-1.5-4.6,5.4-5.9
			c-1,2.8,7.5,2.2,8.1-0.7c3.1-0.1-0.7,2.3,1.4,3.3c2.1-3.2,3.1-5.3,5.4-7.2c-0.1-0.5-2.2-2-2-0.7c-1.9-3.9,4-5.7,2.7-11.1
			c2.3-1.1,2.9-2.4,6.1-1.3c-0.3,2.7-2.8,3.4-5.4,3.9c0.3,1.4-0.5,1.7-0.7,2.6c0.2,1.3,1.8,1.3,2.7,2c0.3,2.1-1.8,1.7-2,3.3
			c0.8,0.8,1.9,1.2,1.4,3.3c2.2,0.1,1.6-2.3,2.7-3.3c2.4,1.4-3.1,4.9,0.7,5.9c1.5-2.5,4.3-3.7,4.1-7.8c2.3-0.5,2.9,0.7,4.1,1.3
			c-1.5,1.8-1.3,3.3-0.7,5.9C152.4,65.3,152.9,66.2,149.1,66.6 M111.2,79.7c1.8,2.9-2,2.9-3.4,4.6c3.4,1.2,9.4-3.9,9.5-5.9
			C115.6,80.1,113.6,82,111.2,79.7 M113.3,90.1c0.6-2,3.2-2.1,4.1-3.9C115.3,86.5,112,88.8,113.3,90.1 M126.8,104.5
			c0.5-1.8,0.1-6-2-7.2C123,99.8,126.4,102,126.8,104.5 M141.7,113c-5.6-0.2-6.6,4.1-6.8,9.1c3.2-1.7,1.9-7.7,6.1-8.5
			c1.4,2.3-0.4,3.6,1.4,5.2c1.2-2.3,4.6-2.5,4.7-5.9c-2.5,0.5-2.9-1.1-5.4-0.7c-0.9-2.2-1.2-4.9-4.1-5.2c-2.3,1.7-4.8,3.2-6.8,5.2
			c2.9,0.4,3.8-1.1,5.4-2C134.6,113.8,140.9,110.5,141.7,113 M141,122.1c3.5,0.2,8.1-3.9,11.5-5.9
			C147.5,117.1,144.3,119.7,141,122.1"/>
		<path id="XMLID_10_" class="st0" d="M155.9,45.7c0.2,1.2-1.5,4.5-1.4,6.5C152.7,50.5,154.1,46.3,155.9,45.7"/>
		<path id="XMLID_9_" class="st0" d="M159.9,49.6c-1.5,0.1-0.3-2.3-0.7-3.3c0.7,0,0.5,0.8,0.7,1.3c0.9-0.9,3.2-0.9,4.1,0
			C164.1,48.9,159.9,47,159.9,49.6"/>
		<path id="XMLID_55_" class="st0" d="M346.5,143.7c-0.6-13.1-1-22.3-6.8-30c0.5-1.5,1.4-2.5,1.4-4.6c-8.7-25.9-25.1-47.5-43.9-61.4
			c-0.7,2.2-2.7,2.2-4.1,0.7c-0.3,2.7-3.4,3.4-5.4,2.6c-0.8,2.1,2.2,0.5,1.4,2.6c-1.8,2.8-4.4,8.8-8.8,12.4c0.5,0.1,1.3,0,1.4,0.7
			c-1.7,0.8-3.3-1.5-3.4,0c0.6,1-3,3.6-4.7,4.6c0.2,2.2,1.2,3.7,2.7,4.6c-2.9,1.5,0.9,1.8-0.7,4.6c3.5,1.9,4.8-1.8,8.1-2
			c0.1,3,1.9,4.2,2.7,6.5c-0.7,1.3-4.1,1.3-2,3.3c2.6-1.4,3.2-2.6,7.4-3.3c-1.2-4.6,1.4-5.6,2.7-7.8c-4.1-4-4.5-9.5,1.4-11.8
			c-2-5.5,5.2-5.9,5.4-2c-1.5,1.8-3,3.6-4.1,5.9c0.6,3.4,2.5,5.8,4.1,6.5c1,0.9,3.8-1.9,6.1-2c0.2,1.8,2.5,1.5,3.4,2.6
			c-3.8,0.8-4.2,1.1-8.8,1.3c-0.4,2.5,1.2,3.2,0.7,5.9c-2.1,0.5-1.3-1.8-3.4-1.3c-1.1,2.7-0.3,7.1-3.4,7.8
			c-3.6-0.5-7.9,0.8-12.2,0.7c-0.6-1.2-1.6-1.9-2-3.3c0.8,0.1,1.5,1.2,2,0c-2-1.2-1-4-0.7-6.5c-1.4,0.8-3.2,1.2-4.1,2.6
			c0.6,0,1.1-0.1,1.5-0.3c0.2-0.1,0.3-0.2,0.5-0.3c-0.2,0.1-0.4,0.2-0.5,0.3c-2.7,1.9,0.5,4.7,0.5,8.2c-1.3,0.6-3.2,2.1-4.7,0.7
			c-1.2,2.1-4.9,7.3-7.4,3.9c0.3-1,2.1-0.6,1.4-2.6c-3.4-3.8-9.4-7.4-6.1-12.4h-3.4c0.2-0.8,3-2.7,0-2.6c-4.4,2.4-0.2,7.7-1.4,9.8
			c2.6-0.6,2.9,1.1,4.1,2c-0.9,0.8-1.3,2-2.7,0.7c0.8,3.6-0.1,2.9-1.4,5.2c1.8,0.8,4-1.3,4.1,0c-1.7,1-4.2,1.2-4.7,3.3
			c4.1-0.5,10.6-4,11.5,0c-2.5,0.5-3.3,3.3-5.4,0.7c-0.2,1.2,0.8,1.4,0.7,2.6c-2.1,1.2-3-0.6-4.7,0.7c2.8,3.8,9.3,8,4.1,12.4
			c2.9,0.6,4.9,2.3,7.4,3.3c2.2-1.2-0.5-3,2-3.9c2.8,0.5,5,0,8.1-2c2.4,5.9,11.1,7.9,10.8,14.4c1.5-1.8,1.3-3.3,0.7-5.9
			c1.8-0.5,1.4,1.3,2.7,1.3c-2.7-4-7.4-5.9-10.1-9.8c0.9-0.4,0.1-2.5,1.4-2.6c1.3,1.2,1.4,2.7,2.7,0.7c0.6,4.6,5.8,4.9,8.1,7.8
			c-0.2,5.7,4.5,6.1,4.1,10.5c3.4-0.5,1.8-1.7,4.1-3.3c-1.6-0.8-2.8-2.1-2.7-4.6c2.6,1.7,0.7-1.8,5.4-0.7c0.9,4,0.9,8.9,6.8,10.5
			c1.7-2.5,5.5,1.3,8.8-1.3c-0.5,3.3-0.1,8.3-2.7,11.1c-9.8,3.3-17-5.7-23-1.3c14.7,11.5,9.6,42-2,52.9c7.5,7.7,3.4,24.2-7.4,25.5
			c0,8.1-5.4,10.9-11.5,13.1c3.3,8.4,0.9,16,3.4,24.8c10.6-5.6,22.9-14.8,31.1-23.5c3-3.2,8.5-8.7,9.5-12.4c0.7-2.7-1.4-5.9-0.7-8.5
			c1-3.6,4.4-4.8,6.1-6.5c6.8-7,13.4-13.7,13.5-24.8c-0.8,1.8-4.2,1.2-6.8,1.3c-0.3-6.3-6.2-10.9-8.1-17.6
			c-1.2-8.3-4.1-11.6-6.8-18.9c1.8,2,2.2,2.3,4.7,2.6c1.1,5.3,5.9,6.9,4.7,14.4c4.9,3.8,4.4,9.6,6.1,15.7
			c13.8-0.3,13.3-24.6,8.1-33.3C343.9,143.8,344.9,143.5,346.5,143.7 M307.9,208.4c1.2,0.7-0.2,6.2,2.7,7.8
			C308.4,216.8,306.8,211.6,307.9,208.4 M312.7,226c-1.7-1.7,0.7-5,0.7-7.2C314.7,220.2,312.8,223.9,312.7,226 M316.1,206.4
			c-1.7-0.1-2.1-1.2-2.7,0.7c-1.6-2.4,0.2-3.1,0-5.9c1.7-0.1,3.3-0.1,4.1,0.7C317.5,203.9,315.6,204,316.1,206.4 M316.7,71.2
			c0.5-1.3,3.4,2.5,2,3.3c-0.7-0.4-0.7-1.5-2-1.3C316.6,72,317.9,71.5,316.7,71.2 M310.7,71.8c1.6,0.9,3.8,1.1,3.4,3.9
			C311.2,76.1,309.6,73.2,310.7,71.8 M313.3,120.4c0,0.1,0,0.3,0,0.4c-0.2,0-0.4,0-0.6,0c-0.2,0.2-0.5,0.4-0.7,0.7
			c-1-0.4-0.1-0.6,0.7-0.7C312.9,120.7,313.1,120.5,313.3,120.4c-0.2-1.2-1.5-1.2-2-2.2c1.2-3.2,2.3-6.5,4.1-9.1
			c2.1-0.3,2.4,1.2,4.7,0.7c-1.6,2.6-0.3,0.8,0,3.9c2.1,0.1,2.3-1.7,4.7-1.3c-0.9-1-3.3-0.7-4.1-2c2.2-1.1,4.5-2.2,7.4-2.6
			c-2.4,1.3-0.6,2.6-2.7,3.9c1.7,3,5.2,4.1,7.4,6.5C328,123.9,319.7,116.2,313.3,120.4"/>
		<path id="XMLID_1_" class="st0" d="M316.7,71.2c0.5-1.3,3.4,2.5,2,3.3c-0.7-0.4-0.7-1.5-2-1.3C316.6,72,317.9,71.5,316.7,71.2"/>
	</g>
	<g id="XMLID_54_">
		<g id="XMLID_369_">
			<path id="XMLID_370_" class="st0" d="M24.3,286.8l-8.8,24.7h5.4l1.7-5.1h9.1l1.6,5.1h5.6l-8.7-24.7H24.3z M24,302.2l3.2-9.8l0,0
				l3.1,9.8H24z M42,311.5h4.8v-24.7H42V311.5z M74.1,306.3L74.1,306.3l-4.5-19.5h-7.5v24.7h4.8v-20.7H67l4.5,20.7h5l4.6-20.7h0.1
				v20.7H86v-24.7h-7.5L74.1,306.3z M102.2,303.8c0,3.3-2.1,4.2-3.7,4.2c-1.5,0-3.1-0.6-3.1-3.4v-11.4h-4.8v12.1
				c0,4.7,2.6,6.8,6.2,6.8c2.5,0,4.5-1.1,5.6-3.1h0.1v2.6h4.6v-18.3h-4.9V303.8z M115.6,298.2c0-0.8,0.3-1.8,3-1.8
				c2.6,0,3,1.2,3.2,2.4h4.7c-0.4-5.2-4.6-6.1-8.2-6.1c-5.7,0-7.4,3.4-7.4,6.1c0,6.9,11.3,4.5,11.3,7.6c0,0.7-0.6,1.9-3.1,1.9
				c-3,0-4-1.1-4-2.7h-4.9c0.1,4.9,4.6,6.3,8.8,6.3c2.8,0,8-1,8-6.3C127.1,299,115.6,301.1,115.6,298.2z M135.9,288.3h-4.8v5h-2.5
				v3.4h2.5v11.1c0,2.4,0.8,4,4.9,4h0.6c0.8,0,1.5,0,2.3-0.1V308c-0.3,0-0.7,0.1-1,0.1c-2,0-2-0.4-2-1.5v-10h3v-3.4h-3V288.3z
				 M156.8,308v-9.9c0-4.5-4.7-5.3-7.3-5.3c-3.7,0-7.6,0.8-8.2,6.4h4.6c0.1-1.1,0.5-2.5,3-2.5c1.2,0,3.2,0.1,3.2,2.1
				c0,1-0.9,1.3-1.7,1.4l-4.3,0.7c-3.1,0.4-5.3,2.3-5.3,5.9c0,3.8,2.8,5.3,5.6,5.3c3.3,0,4.8-1.5,5.9-2.7c0.1,1,0.2,1.3,0.4,2.2h5.2
				v-0.7C157.3,310.6,156.8,310.1,156.8,308z M152.1,305c0,2.2-2.2,3.6-4.3,3.6c-0.9,0-2.2-0.5-2.2-2.2c0-2,1.5-2.4,3.3-2.8
				c2-0.3,2.8-0.6,3.3-1v2.4H152.1z M166.6,292.5c0-1.5,0-2,1.7-2h1.3v-3.9c-0.4,0-1.1-0.1-2.5-0.1c-3.3,0-5.4,1.4-5.4,5.2v1.5h-2.5
				v3.4h2.6v14.9h4.8v-14.9h3.1v-3.4h-3.1L166.6,292.5L166.6,292.5z M187.3,308v-9.9c0-4.5-4.7-5.3-7.3-5.3c-3.7,0-7.6,0.8-8.2,6.4
				h4.6c0.1-1.1,0.5-2.5,3-2.5c1.2,0,3.2,0.1,3.2,2.1c0,1-0.9,1.3-1.7,1.4l-4.3,0.7c-3.1,0.4-5.3,2.3-5.3,5.9c0,3.8,2.8,5.3,5.6,5.3
				c3.3,0,4.8-1.5,5.9-2.7c0.1,1,0.2,1.3,0.4,2.2h5.2v-0.7C187.8,310.6,187.3,310.1,187.3,308z M182.6,305c0,2.2-2.2,3.6-4.3,3.6
				c-0.9,0-2.2-0.5-2.2-2.2c0-2,1.5-2.4,3.3-2.8c2-0.3,2.8-0.6,3.3-1v2.4H182.6z M218.8,304.9L218.8,304.9
				c-0.6-3.2-0.9-4.5-3.7-18.1h-5.5c-2.6,13-3,15.5-3.4,18.1h-0.1c-0.4-2.8-0.8-4.5-3.9-18.1h-5.5l7,24.7h4.8
				c2.6-12.7,3.1-14.5,3.8-19.3h0.1c0.8,4.8,1.3,7.2,3.8,19.3h4.9l6.9-24.7h-5.2C219.6,300.4,219.2,302.5,218.8,304.9z M236.9,292.7
				c-8,0-8.8,7.1-8.8,9.3c0,7.5,3.9,10,9.1,10c3.1,0,6.8-1.4,8-5.9h-4.9c-0.4,1.3-1.8,2-3.1,2c-3.9,0-4.2-3.1-4.3-4.5h12.5v-0.9
				C245.5,294.5,240.5,292.7,236.9,292.7z M233.1,300.5c0.3-2.4,1.5-3.9,3.7-3.9c1.5,0,3.4,0.9,3.7,3.9H233.1z M248.8,311.5h4.8
				v-24.7h-4.8V311.5z M263.8,292.5c0-1.5,0-2,1.7-2h1.3v-3.9c-0.4,0-1.1-0.1-2.5-0.1c-3.3,0-5.4,1.4-5.4,5.2v1.5h-2.6v3.4h2.6v14.9
				h4.8v-14.9h3.1v-3.4h-3.1v-0.7H263.8z M284.5,308v-9.9c0-4.5-4.7-5.3-7.3-5.3c-3.7,0-7.6,0.8-8.2,6.4h4.6c0.1-1.1,0.5-2.5,3-2.5
				c1.2,0,3.2,0.1,3.2,2.1c0,1-0.9,1.3-1.7,1.4l-4.3,0.7c-3.1,0.4-5.3,2.3-5.3,5.9c0,3.8,2.8,5.3,5.6,5.3c3.3,0,4.8-1.5,5.9-2.7
				c0.1,1,0.2,1.3,0.4,2.2h5.2v-0.7C284.9,310.6,284.5,310.1,284.5,308z M279.8,305c0,2.2-2.2,3.6-4.3,3.6c-0.9,0-2.2-0.5-2.2-2.2
				c0-2,1.5-2.4,3.3-2.8c2-0.3,2.8-0.6,3.3-1L279.8,305L279.8,305z M293.4,296.4L293.4,296.4l-0.1-3.2h-4.6v18.3h4.8V302
				c0-2,0.7-4.4,4.4-4.4c0.4,0,1,0,1.4,0.1v-4.9c-0.3,0-0.6-0.1-0.9-0.1C295.5,292.7,294.4,294.5,293.4,296.4z M308.7,292.7
				c-8,0-8.8,7.1-8.8,9.3c0,7.5,3.9,10,9.1,10c3.1,0,6.8-1.4,8-5.9h-4.8c-0.4,1.3-1.8,2-3.1,2c-3.9,0-4.2-3.1-4.3-4.5h12.5v-0.9
				C317.3,294.5,312.3,292.7,308.7,292.7z M304.9,300.5c0.3-2.4,1.5-3.9,3.7-3.9c1.5,0,3.4,0.9,3.7,3.9H304.9z M344.9,286.8h-20.1
				v4.4h7.5v20.4h5.2v-20.4h7.5v-4.4H344.9z M349.5,296.4L349.5,296.4l-0.1-3.2h-4.6v18.3h4.8V302c0-2,0.7-4.4,4.4-4.4
				c0.4,0,1,0,1.4,0.1v-4.9c-0.3,0-0.6-0.1-0.9-0.1C351.6,292.7,350.5,294.5,349.5,296.4z M369.4,303.8c0,3.3-2.1,4.2-3.7,4.2
				c-1.5,0-3.1-0.6-3.1-3.4v-11.4h-4.8v12.1c0,4.7,2.6,6.8,6.2,6.8c2.5,0,4.5-1.1,5.6-3.1h0.1v2.6h4.6v-18.3h-4.8v10.5H369.4z
				 M382.8,298.2c0-0.8,0.3-1.8,3-1.8c2.6,0,3,1.2,3.2,2.4h4.7c-0.4-5.2-4.6-6.1-8.2-6.1c-5.7,0-7.4,3.4-7.4,6.1
				c0,6.9,11.3,4.5,11.3,7.6c0,0.7-0.6,1.9-3.1,1.9c-3,0-4-1.1-4-2.7h-4.9c0.1,4.9,4.6,6.3,8.8,6.3c2.8,0,8-1,8-6.3
				C394.2,299,382.8,301.1,382.8,298.2z M403.1,288.3h-4.8v5h-2.5v3.4h2.5v11.1c0,2.4,0.8,4,4.9,4h0.6c0.8,0,1.5,0,2.3-0.1V308
				c-0.3,0-0.7,0.1-1,0.1c-2,0-2-0.4-2-1.5v-10h3v-3.4h-3V288.3z M422.3,291.2c0-1.9-1.2-2.5-3.3-2.5h-3v8.2h1.7v-3.4h0.8l1.9,3.4
				h2.1l-2.1-3.6C421.4,293.3,422.3,292.7,422.3,291.2z M419.2,292.1h-1.5v-2h1.2c0.7,0,1.6,0.1,1.6,0.9
				C420.4,292,419.9,292.1,419.2,292.1z M418.9,285.3c-4,0-7.6,2.8-7.6,7.6c0,4.8,3.6,7.6,7.6,7.6s7.6-2.8,7.6-7.6
				C426.5,288.1,422.9,285.3,418.9,285.3z M418.9,298.7L418.9,298.7L418.9,298.7c-3,0-5.4-2.4-5.4-5.8c0-3.5,2.4-5.8,5.4-5.8
				c2.9,0,5.4,2.3,5.4,5.8S421.8,298.7,418.9,298.7z"/>
		</g>
	</g>
</g>
</svg>
